<svg xmlns="http://www.w3.org/2000/svg" xmlns:xlink="http://www.w3.org/1999/xlink" xml:space="preserve" version="1.1" style="shape-rendering:geometricPrecision;text-rendering:geometricPrecision;image-rendering:optimizeQuality;" viewBox="0 0 263 320" x="0px" y="0px" fill-rule="evenodd" clip-rule="evenodd"><defs><style type="text/css">
   
    .fil0 {fill:black}
   
  </style></defs><g><path class="fil0" d="M182 83c0,-1 -5,-14 -4,-13 2,1 7,12 10,4 1,-3 5,-13 8,-15 0,0 -2,11 -3,12 -5,11 -3,10 8,4l-12 12c-3,5 -3,11 -5,15 -3,5 -9,8 4,4 9,-4 6,1 11,-9 8,-16 -2,9 8,4l26 -12c3,0 -3,4 -4,4 -10,7 -29,11 -15,15 7,3 -1,2 -3,1 -20,-1 -64,17 -68,37 -4,24 2,48 27,63 18,10 58,10 62,26 -6,-1 -19,-12 -45,-12 -15,0 6,14 -2,12 -7,-2 -7,-7 -14,-11 -7,-4 -31,-12 -36,-3 -5,8 13,11 6,11 -6,0 -14,-5 -16,-3 -12,8 16,33 -2,21 -2,-1 -9,-7 -11,-6 -4,0 -6,11 -14,12 -2,1 1,-2 3,-3 3,-4 2,-10 4,-15 2,-6 6,-12 8,-17 4,-12 -12,-12 -21,0 -4,6 -7,12 -16,15 -6,2 9,-7 5,-12 -4,-7 -32,21 -37,22 -3,1 9,-8 8,-12l-20 2c31,-12 24,-10 54,-29 14,-8 12,-10 14,-23 6,-38 7,-56 -34,-76 -6,-3 -11,0 -18,-1 -3,0 12,-2 6,-6 -8,-6 -18,-8 -21,-18 -1,-4 2,5 17,11 8,4 3,-6 5,-10 0,0 3,8 3,9 1,1 14,16 14,3 0,-15 -1,9 20,16 30,11 4,-37 -2,-41 -3,-2 -15,-5 -16,-6 3,-1 14,2 11,-2 -4,-8 -10,-13 -13,-24 -1,-7 14,28 16,13l2 4 17 27c2,0 15,-23 15,-27 1,-4 -2,-12 -1,-14 0,-1 4,11 8,4 2,-5 4,-9 10,-12 3,-2 -5,2 -10,23l-5 13c-3,4 -16,36 3,20 12,-10 5,-4 0,2 -14,17 10,39 41,17 8,-5 15,-17 14,-26z"/><path class="fil0" d="M238 55c-8,7 -12,19 -9,30 8,-7 12,-19 9,-30zm-4 -38c-11,2 -21,10 -24,20 11,-1 20,-10 24,-20zm-25 -15c-9,6 -15,17 -14,28 10,-6 15,-17 14,-28zm26 33c-11,-1 -22,5 -28,14 11,1 22,-5 28,-14zm-83 53c6,6 17,9 26,6 -7,-7 -17,-9 -26,-6zm-57 -7c-8,0 -15,6 -18,14 8,-1 15,-7 18,-14zm57 17c-7,-5 -16,-7 -23,-4 6,6 15,7 23,4zm7 -18c-8,-3 -17,-2 -23,4 7,3 17,1 23,-4zm19 -71c-10,-1 -21,5 -27,14 11,1 22,-5 27,-14zm4 0c-3,11 1,23 10,30 2,-11 -2,-23 -10,-30zm-17 57c0,9 5,19 14,23 0,-9 -6,-19 -14,-23zm-46 -5c1,-8 -2,-17 -9,-21 -1,8 2,16 9,21zm-26 -6c0,-8 5,-16 13,-19 -1,8 -6,16 -13,19zm-23 35c0,-9 5,-16 13,-20 -1,8 -6,16 -13,20zm-7 51c-5,-9 -5,-21 1,-30 6,9 5,21 -1,30zm-24 -4c0,-11 5,-22 14,-28 1,11 -4,22 -14,28zm164 7c3,-10 1,-23 -7,-30 -3,10 -1,22 7,30zm22 -8c-2,-11 -10,-21 -20,-24 2,11 9,20 20,24zm-8 -68c-7,-3 -16,-2 -23,3 8,4 17,2 23,-3zm-5 17c-7,-3 -16,-2 -23,4 8,3 17,1 23,-4zm-63 -14c-8,-4 -17,-4 -24,1 7,4 17,3 24,-1zm78 -17c-11,-3 -22,1 -29,10 10,2 22,-2 29,-10zm-59 -10c0,11 7,22 16,27 0,-11 -6,-22 -16,-27zm12 -12c-2,10 1,22 10,29 2,-11 -2,-22 -10,-29zm24 -5c-7,8 -10,20 -6,31 7,-8 10,-20 6,-31zm41 96c-5,-8 -15,-13 -25,-12 5,8 15,13 25,12zm6 -7c-4,-10 -15,-17 -26,-17 5,10 15,16 26,17zm12 -16c-7,-8 -19,-11 -29,-9 7,9 19,12 29,9zm-40 -30c-7,6 -9,16 -6,25 7,-7 9,-17 6,-25zm37 -4c-10,2 -20,10 -23,20 11,-1 20,-10 23,-20zm-95 -5c-8,-7 -21,-7 -30,-2 9,6 21,7 30,2zm1 -10c-9,-8 -21,-10 -31,-6 8,7 20,10 31,6zm5 -20c-10,-4 -23,-3 -31,4 10,5 22,3 31,-4zm-57 -19c-2,11 2,22 10,29 3,-10 -1,-22 -10,-29zm16 -12c-5,10 -4,22 3,31 4,-10 3,-22 -3,-31zm24 1c-9,6 -14,17 -13,28 9,-6 15,-17 13,-28zm-96 68c6,6 9,15 7,22 -6,-5 -9,-14 -7,-22zm-38 50c5,-10 15,-17 26,-17 -5,10 -15,17 -26,17zm-11 -14c6,-9 18,-13 28,-11 -6,8 -18,13 -28,11zm-9 -18c9,-6 21,-7 31,-2 -9,6 -21,7 -31,2zm50 -22c3,8 2,17 -3,23 -4,-7 -2,-16 3,-23zm-15 -16c6,8 7,21 2,30 -6,-8 -7,-21 -2,-30zm-25 5c10,4 18,14 19,25 -10,-4 -18,-14 -19,-25zm39 9c8,-4 17,-4 24,1 -7,4 -17,3 -24,-1zm-6 -10c9,-6 21,-7 31,-2 -9,6 -21,7 -31,2zm-3 -19c10,-4 22,-1 30,7 -10,3 -22,0 -30,-7zm58 -14c1,11 -4,22 -13,28 -1,-11 4,-22 13,-28zm-14 -13c4,10 1,22 -6,30 -4,-10 -2,-23 6,-30zm-25 -2c9,7 13,19 10,29 -8,-6 -12,-18 -10,-29z"/></g><text x="0" y="271" fill="#000000" font-size="5px" font-weight="bold" font-family="'Helvetica Neue', Helvetica, Arial-Unicode, Arial, Sans-serif">Created by evi1000</text><text x="0" y="276" fill="#000000" font-size="5px" font-weight="bold" font-family="'Helvetica Neue', Helvetica, Arial-Unicode, Arial, Sans-serif">from the Noun Project</text></svg>